<mxfile host="65bd71144e">
    <diagram id="1YPMKJ5KQTjZr1FS92BZ" name="Page-1">
        <mxGraphModel dx="896" dy="438" grid="1" gridSize="10" guides="1" tooltips="1" connect="1" arrows="1" fold="1" page="1" pageScale="1" pageWidth="1600" pageHeight="1600" math="0" shadow="0">
            <root>
                <mxCell id="0"/>
                <mxCell id="1" parent="0"/>
                <mxCell id="24" value="" style="rounded=1;whiteSpace=wrap;html=1;fillColor=none;dashed=1;" vertex="1" parent="1">
                    <mxGeometry x="345" y="690" width="640" height="240" as="geometry"/>
                </mxCell>
                <mxCell id="21" style="edgeStyle=none;html=1;exitX=1;exitY=0.5;exitDx=0;exitDy=0;entryX=0;entryY=0.5;entryDx=0;entryDy=0;" edge="1" parent="1" source="4" target="11">
                    <mxGeometry relative="1" as="geometry">
                        <Array as="points">
                            <mxPoint x="825" y="740"/>
                            <mxPoint x="825" y="780"/>
                        </Array>
                    </mxGeometry>
                </mxCell>
                <mxCell id="4" value="UserStream" style="rounded=1;whiteSpace=wrap;html=1;fillColor=none;" vertex="1" parent="1">
                    <mxGeometry x="525" y="710" width="120" height="60" as="geometry"/>
                </mxCell>
                <mxCell id="20" style="edgeStyle=none;html=1;exitX=1;exitY=0.5;exitDx=0;exitDy=0;entryX=0;entryY=0.5;entryDx=0;entryDy=0;" edge="1" parent="1" source="5">
                    <mxGeometry relative="1" as="geometry">
                        <mxPoint x="685.0000000000002" y="850" as="targetPoint"/>
                        <Array as="points">
                            <mxPoint x="665" y="820"/>
                            <mxPoint x="665" y="850"/>
                        </Array>
                    </mxGeometry>
                </mxCell>
                <mxCell id="23" style="edgeStyle=none;html=1;exitX=1;exitY=0.5;exitDx=0;exitDy=0;entryX=0;entryY=0.5;entryDx=0;entryDy=0;" edge="1" parent="1" source="5" target="11">
                    <mxGeometry relative="1" as="geometry">
                        <Array as="points">
                            <mxPoint x="665" y="820"/>
                            <mxPoint x="665" y="780"/>
                        </Array>
                    </mxGeometry>
                </mxCell>
                <mxCell id="5" value="ListingInfoStream" style="rounded=1;whiteSpace=wrap;html=1;fillColor=none;" vertex="1" parent="1">
                    <mxGeometry x="525" y="790" width="120" height="60" as="geometry"/>
                </mxCell>
                <mxCell id="22" style="edgeStyle=none;html=1;exitX=1;exitY=0.5;exitDx=0;exitDy=0;entryX=0;entryY=0.5;entryDx=0;entryDy=0;" edge="1" parent="1" target="11">
                    <mxGeometry relative="1" as="geometry">
                        <mxPoint x="805.0000000000002" y="850" as="sourcePoint"/>
                        <Array as="points">
                            <mxPoint x="825" y="850"/>
                            <mxPoint x="825" y="780"/>
                        </Array>
                    </mxGeometry>
                </mxCell>
                <mxCell id="34" style="edgeStyle=none;html=1;exitX=1;exitY=0.5;exitDx=0;exitDy=0;entryX=0;entryY=0.5;entryDx=0;entryDy=0;" edge="1" parent="1" source="11" target="31">
                    <mxGeometry relative="1" as="geometry">
                        <Array as="points">
                            <mxPoint x="1015" y="780"/>
                            <mxPoint x="1015" y="810"/>
                        </Array>
                    </mxGeometry>
                </mxCell>
                <mxCell id="11" value="UiStateStream" style="rounded=1;whiteSpace=wrap;html=1;fillColor=none;" vertex="1" parent="1">
                    <mxGeometry x="845" y="750" width="120" height="60" as="geometry"/>
                </mxCell>
                <mxCell id="18" style="edgeStyle=none;html=1;exitX=1;exitY=0.5;exitDx=0;exitDy=0;entryX=0;entryY=0.5;entryDx=0;entryDy=0;" edge="1" parent="1" source="15" target="4">
                    <mxGeometry relative="1" as="geometry">
                        <Array as="points">
                            <mxPoint x="505" y="780"/>
                            <mxPoint x="505" y="740"/>
                        </Array>
                    </mxGeometry>
                </mxCell>
                <mxCell id="19" style="edgeStyle=none;html=1;exitX=1;exitY=0.5;exitDx=0;exitDy=0;entryX=0;entryY=0.5;entryDx=0;entryDy=0;" edge="1" parent="1" source="15" target="5">
                    <mxGeometry relative="1" as="geometry">
                        <Array as="points">
                            <mxPoint x="505" y="780"/>
                            <mxPoint x="505" y="820"/>
                        </Array>
                    </mxGeometry>
                </mxCell>
                <mxCell id="15" value="ListingParamsStream" style="rounded=1;whiteSpace=wrap;html=1;fillColor=none;" vertex="1" parent="1">
                    <mxGeometry x="365" y="750" width="120" height="60" as="geometry"/>
                </mxCell>
                <mxCell id="25" value="ViewModel" style="text;html=1;strokeColor=none;fillColor=none;align=center;verticalAlign=middle;whiteSpace=wrap;rounded=0;" vertex="1" parent="1">
                    <mxGeometry x="365" y="690" width="70" height="20" as="geometry"/>
                </mxCell>
                <mxCell id="26" value="" style="rounded=1;whiteSpace=wrap;html=1;dashed=1;fillColor=none;" vertex="1" parent="1">
                    <mxGeometry x="685" y="790" width="120" height="120" as="geometry"/>
                </mxCell>
                <mxCell id="27" value="ImageStream" style="text;html=1;strokeColor=none;fillColor=none;align=center;verticalAlign=middle;whiteSpace=wrap;rounded=0;" vertex="1" parent="1">
                    <mxGeometry x="695" y="790" width="80" height="20" as="geometry"/>
                </mxCell>
                <mxCell id="28" value="CoRoutine1" style="rounded=1;whiteSpace=wrap;html=1;fillColor=none;strokeColor=default;" vertex="1" parent="1">
                    <mxGeometry x="695" y="820" width="100" height="30" as="geometry"/>
                </mxCell>
                <mxCell id="29" value="CoRoutine2" style="rounded=1;whiteSpace=wrap;html=1;fillColor=none;strokeColor=default;" vertex="1" parent="1">
                    <mxGeometry x="695" y="860" width="100" height="30" as="geometry"/>
                </mxCell>
                <mxCell id="31" value="" style="rounded=1;whiteSpace=wrap;html=1;fillColor=none;dashed=1;" vertex="1" parent="1">
                    <mxGeometry x="1045" y="723.4399999999999" width="160" height="173.12" as="geometry"/>
                </mxCell>
                <mxCell id="32" value="View" style="text;html=1;strokeColor=none;fillColor=none;align=center;verticalAlign=middle;whiteSpace=wrap;rounded=0;" vertex="1" parent="1">
                    <mxGeometry x="1065" y="723.4399999999999" width="40" height="20" as="geometry"/>
                </mxCell>
                <mxCell id="36" style="edgeStyle=none;html=1;exitX=1;exitY=0.5;exitDx=0;exitDy=0;entryX=0;entryY=0.5;entryDx=0;entryDy=0;" edge="1" parent="1" source="31" target="15">
                    <mxGeometry relative="1" as="geometry">
                        <mxPoint x="1235" y="810.3333333333333" as="targetPoint"/>
                        <Array as="points">
                            <mxPoint x="1275" y="810"/>
                            <mxPoint x="1275" y="670"/>
                            <mxPoint x="325" y="670"/>
                            <mxPoint x="325" y="780"/>
                        </Array>
                    </mxGeometry>
                </mxCell>
                <mxCell id="33" value="bottomOfPage()" style="rounded=1;whiteSpace=wrap;html=1;strokeColor=default;fillColor=none;" vertex="1" parent="1">
                    <mxGeometry x="1065" y="749.9999999999999" width="120" height="60" as="geometry"/>
                </mxCell>
                <mxCell id="35" value="UiState" style="text;html=1;strokeColor=none;fillColor=none;align=center;verticalAlign=middle;whiteSpace=wrap;rounded=0;" vertex="1" parent="1">
                    <mxGeometry x="985" y="760" width="60" height="20" as="geometry"/>
                </mxCell>
                <mxCell id="38" value="updateFilters()" style="rounded=1;whiteSpace=wrap;html=1;strokeColor=default;fillColor=none;" vertex="1" parent="1">
                    <mxGeometry x="1065" y="820" width="120" height="60" as="geometry"/>
                </mxCell>
                <mxCell id="40" value="NewUiState" style="text;html=1;strokeColor=none;fillColor=none;align=center;verticalAlign=middle;whiteSpace=wrap;rounded=0;" vertex="1" parent="1">
                    <mxGeometry x="1205" y="790" width="70" height="20" as="geometry"/>
                </mxCell>
                <mxCell id="41" value="" style="ellipse;whiteSpace=wrap;html=1;strokeColor=default;fillColor=none;" vertex="1" parent="1">
                    <mxGeometry x="740" y="896.56" width="10" height="10" as="geometry"/>
                </mxCell>
                <mxCell id="42" value="" style="ellipse;whiteSpace=wrap;html=1;strokeColor=default;fillColor=none;" vertex="1" parent="1">
                    <mxGeometry x="720" y="896.56" width="10" height="10" as="geometry"/>
                </mxCell>
                <mxCell id="43" value="" style="ellipse;whiteSpace=wrap;html=1;strokeColor=default;fillColor=none;" vertex="1" parent="1">
                    <mxGeometry x="760" y="896.56" width="10" height="10" as="geometry"/>
                </mxCell>
            </root>
        </mxGraphModel>
    </diagram>
</mxfile>